<svg width="7" height="12" viewBox="0 0 7 12" fill="none" xmlns="http://www.w3.org/2000/svg">
<path d="M6.67992 8.14125C6.67992 8.94001 6.39961 9.61969 5.83899 10.1803C5.27837 10.7409 4.59868 11.0212 3.79992 11.0212C2.99103 11.0212 2.30881 10.7301 1.75326 10.1479C1.1977 9.56569 0.919922 8.86569 0.919922 8.04792V2.86125C0.919922 2.28347 1.12214 1.79236 1.52659 1.38792C1.93103 0.983472 2.42214 0.78125 2.99992 0.78125C3.58659 0.78125 4.07992 0.994583 4.47992 1.42125C4.87992 1.84792 5.07992 2.35903 5.07992 2.95458V7.82125C5.07992 8.17814 4.95579 8.48067 4.70752 8.72885C4.45934 8.97712 4.15681 9.10125 3.79992 9.10125C3.43548 9.10125 3.13103 8.97196 2.88659 8.71338C2.64214 8.45481 2.51992 8.13965 2.51992 7.76792V2.70125H3.47992V7.82125C3.47992 7.91369 3.51014 7.99014 3.57059 8.05058C3.63103 8.11103 3.70748 8.14125 3.79992 8.14125C3.89237 8.14125 3.96881 8.11103 4.02926 8.05058C4.0897 7.99014 4.11992 7.91369 4.11992 7.82125V2.86125C4.11992 2.55014 4.01103 2.28569 3.79326 2.06792C3.57548 1.85014 3.31014 1.74125 2.99726 1.74125C2.68446 1.74125 2.42001 1.85458 2.20392 2.08125C1.98792 2.30792 1.87992 2.57681 1.87992 2.88792V8.14125C1.87992 8.67458 2.06659 9.12569 2.43992 9.49458C2.81326 9.86347 3.26659 10.0524 3.79992 10.0612C4.33326 10.0701 4.78659 9.87903 5.15992 9.48792C5.53326 9.09681 5.71992 8.62569 5.71992 8.07458V2.70125H6.67992V8.14125Z" fill="#0870FF"/>
</svg>
