<svg width="48" height="48" viewBox="0 0 48 48" fill="none" xmlns="http://www.w3.org/2000/svg">
<path d="M16.9993 29.2493C16.1827 29.2493 15.4924 28.9674 14.9285 28.4035C14.3646 27.8396 14.0827 27.1493 14.0827 26.3327C14.0827 25.516 14.3646 24.8257 14.9285 24.2618C15.4924 23.698 16.1827 23.416 16.9993 23.416C17.816 23.416 18.5063 23.698 19.0702 24.2618C19.6341 24.8257 19.916 25.516 19.916 26.3327C19.916 27.1493 19.6341 27.8396 19.0702 28.4035C18.5063 28.9674 17.816 29.2493 16.9993 29.2493ZM30.9993 29.2493C30.1827 29.2493 29.4924 28.9674 28.9285 28.4035C28.3646 27.8396 28.0827 27.1493 28.0827 26.3327C28.0827 25.516 28.3646 24.8257 28.9285 24.2618C29.4924 23.698 30.1827 23.416 30.9993 23.416C31.816 23.416 32.5063 23.698 33.0702 24.2618C33.6341 24.8257 33.916 25.516 33.916 26.3327C33.916 27.1493 33.6341 27.8396 33.0702 28.4035C32.5063 28.9674 31.816 29.2493 30.9993 29.2493ZM23.9994 42.666C29.2105 42.666 33.6244 40.8577 37.241 37.241C40.8577 33.6244 42.666 29.2105 42.666 23.9994C42.666 23.066 42.6077 22.1619 42.491 21.2869C42.3744 20.4119 42.1605 19.566 41.8493 18.7493C41.0327 18.9438 40.216 19.0896 39.3994 19.1868C38.5827 19.2841 37.7271 19.3327 36.8327 19.3327C33.2938 19.3327 29.9493 18.5743 26.7993 17.0577C23.6493 15.541 20.966 13.4216 18.7493 10.6993C17.5049 13.7327 15.7257 16.3674 13.4118 18.6035C11.098 20.8396 8.4049 22.5216 5.33268 23.6493V23.9994C5.33268 29.2105 7.14102 33.6244 10.7577 37.241C14.3743 40.8577 18.7882 42.666 23.9994 42.666ZM23.9994 47.3327C20.7716 47.3327 17.7382 46.7202 14.8993 45.4952C12.0605 44.2702 9.59102 42.6077 7.49102 40.5077C5.39102 38.4077 3.72852 35.9382 2.50352 33.0994C1.27852 30.2605 0.666016 27.2271 0.666016 23.9994C0.666016 20.7716 1.27852 17.7382 2.50352 14.8993C3.72852 12.0605 5.39102 9.59102 7.49102 7.49102C9.59102 5.39102 12.0605 3.72852 14.8993 2.50352C17.7382 1.27852 20.7716 0.666016 23.9994 0.666016C27.2271 0.666016 30.2605 1.27852 33.0994 2.50352C35.9382 3.72852 38.4077 5.39102 40.5077 7.49102C42.6077 9.59102 44.2702 12.0605 45.4952 14.8993C46.7202 17.7382 47.3327 20.7716 47.3327 23.9994C47.3327 27.2271 46.7202 30.2605 45.4952 33.0994C44.2702 35.9382 42.6077 38.4077 40.5077 40.5077C38.4077 42.6077 35.9382 44.2702 33.0994 45.4952C30.2605 46.7202 27.2271 47.3327 23.9994 47.3327ZM20.8494 5.62435C22.4827 8.34657 24.6993 10.5341 27.4993 12.1868C30.2993 13.8396 33.4105 14.666 36.8327 14.666C37.3771 14.666 37.9021 14.6368 38.4077 14.5785C38.9132 14.5202 39.4382 14.4521 39.9827 14.3743C38.3493 11.6521 36.1327 9.46463 33.3327 7.81185C30.5327 6.15907 27.4216 5.33268 23.9994 5.33268C23.4549 5.33268 22.9299 5.36185 22.4243 5.42018C21.9188 5.47852 21.3938 5.54657 20.8494 5.62435ZM6.32435 18.1077C8.30768 16.9799 10.0382 15.5216 11.516 13.7327C12.9938 11.9438 14.1021 9.94102 14.841 7.72435C12.8577 8.85213 11.1271 10.3105 9.64935 12.0993C8.17157 13.8882 7.06324 15.891 6.32435 18.1077Z" fill="#263238"/>
</svg>
